<?xml version="1.0" standalone="no"?>
<!DOCTYPE svg PUBLIC "-//W3C//DTD SVG 20010904//EN"
 "http://www.w3.org/TR/2001/REC-SVG-20010904/DTD/svg10.dtd">
<svg version="1.0" xmlns="http://www.w3.org/2000/svg"
 width="16.000000pt" height="16.000000pt" viewBox="0 0 16.000000 16.000000"
 preserveAspectRatio="xMidYMid meet">
<metadata>
Created by potrace 1.11, written by Peter Selinger 2001-2013
</metadata>
<g transform="translate(0.000000,16.000000) scale(0.003125,-0.003125)"
fill="#000000" stroke="none">
<path d="M654 4329 c-8 -14 -9 -83 0 -97 3 -5 30 -13 59 -17 239 -30 423 -128
491 -263 13 -26 327 -742 699 -1592 371 -850 681 -1558 688 -1573 12 -26 16
-28 67 -25 l54 3 647 1605 c380 944 660 1625 678 1651 76 110 197 170 390 195
47 6 53 9 58 35 4 16 4 43 0 59 -7 31 -7 31 -53 24 -61 -10 -943 -10 -1004 0
-46 7 -46 7 -53 -24 -4 -16 -4 -43 0 -59 6 -27 11 -29 63 -36 94 -11 204 -35
249 -55 76 -34 92 -108 48 -227 -121 -322 -919 -2303 -928 -2303 -14 0 -994
2272 -1019 2362 -43 155 46 206 393 224 l127 7 6 32 c4 18 3 43 -2 55 -9 23
-10 23 -148 19 -224 -6 -1384 -3 -1446 4 -38 5 -59 3 -64 -4z"/>
</g>
</svg>
